# xmcd CD database file
#
# Track frame offsets:
#	150
#	30550
#	54541
#	83607
#	100889
#	127739
#	150942
#	159106
#	185960
#	210788
#	236152
#
# Disc length: 3492 seconds
#
# Revision: 0
# Processed by: cddbd v1.5.2PL0 Copyright (c) Steve Scherf et al.
# Submitted via: CDex 1.70beta2
#
DISCID=780da20b
DTITLE=Admundsen and Co - Pastor'n
DYEAR=2017
DGENRE=Jazz
TTITLE0=Swedish White Nights
TTITLE1=Danae
TTITLE2=Lill i Utsiktsveien 16a
TTITLE3=Judith 2
TTITLE4=Rufus sover
TTITLE5=Armida
TTITLE6=Sjøsanden
TTITLE7=Eurasian Goodies
TTITLE8=Bokfink
TTITLE9=Spettmeis
TTITLE10=GEA
EXTD=YEAR: 2017
EXTT0=
EXTT1=
EXTT2=
EXTT3=
EXTT4=
EXTT5=
EXTT6=
EXTT7=
EXTT8=
EXTT9=
EXTT10=
PLAYORDER=
